<svg xmlns="http://www.w3.org/2000/svg" viewBox="0 0 960 620" role="img" aria-labelledby="title desc">
<title id="title">Arquitectura IoT de sensor a dashboard</title>
<desc id="desc">Ilustración de un flujo IoT desde sensores y ESP32 hacia broker MQTT, plataforma y dashboard.</desc>
<defs>
  <linearGradient id="g1" x1="0" x2="1" y1="0" y2="1">
    <stop offset="0" stop-color="#19b5ff"/>
    <stop offset="1" stop-color="#7c3aed"/>
  </linearGradient>
  <linearGradient id="g2" x1="0" x2="1" y1="0" y2="1">
    <stop offset="0" stop-color="#0f172a"/>
    <stop offset="1" stop-color="#123a64"/>
  </linearGradient>
  <filter id="shadow" x="-20%" y="-20%" width="140%" height="140%">
    <feDropShadow dx="0" dy="18" stdDeviation="20" flood-color="#02111f" flood-opacity=".35"/>
  </filter>
</defs>
<rect width="960" height="620" rx="36" fill="url(#g2)"/>
<circle cx="775" cy="112" r="160" fill="#19b5ff" opacity=".12"/>
<circle cx="180" cy="520" r="210" fill="#7c3aed" opacity=".12"/>
<g filter="url(#shadow)">
  <rect x="72" y="118" width="210" height="146" rx="24" fill="#ffffff" opacity=".96"/>
  <text x="105" y="165" font-family="Inter, Arial" font-size="24" font-weight="700" fill="#0f172a">Sensor</text>
  <text x="105" y="198" font-family="Inter, Arial" font-size="16" fill="#475569">Temperatura</text>
  <text x="105" y="222" font-family="Inter, Arial" font-size="16" fill="#475569">Humedad</text>
  <circle cx="235" cy="172" r="28" fill="url(#g1)" opacity=".95"/>
  <path d="M222 172h26M235 159v26" stroke="#fff" stroke-width="7" stroke-linecap="round"/>
</g>
<g filter="url(#shadow)">
  <rect x="372" y="88" width="222" height="210" rx="28" fill="#0b1220"/>
  <rect x="410" y="125" width="146" height="88" rx="16" fill="#13243d" stroke="#2dd4bf" stroke-width="2"/>
  <circle cx="436" cy="240" r="9" fill="#22c55e"/>
  <circle cx="474" cy="240" r="9" fill="#f59e0b"/>
  <circle cx="512" cy="240" r="9" fill="#38bdf8"/>
  <text x="421" y="177" font-family="Inter, Arial" font-size="28" font-weight="800" fill="#e2e8f0">ESP32</text>
  <text x="414" y="276" font-family="Inter, Arial" font-size="16" fill="#94a3b8">WiFi + lectura</text>
</g>
<path d="M285 190 C320 165 335 152 372 167" fill="none" stroke="#38bdf8" stroke-width="6" stroke-linecap="round" stroke-dasharray="10 14"/>
<path d="M596 187 C650 176 664 205 710 218" fill="none" stroke="#a78bfa" stroke-width="6" stroke-linecap="round" stroke-dasharray="10 14"/>
<g filter="url(#shadow)">
  <rect x="710" y="138" width="180" height="148" rx="24" fill="#ffffff" opacity=".96"/>
  <text x="748" y="181" font-family="Inter, Arial" font-size="23" font-weight="800" fill="#0f172a">MQTT</text>
  <text x="743" y="211" font-family="Inter, Arial" font-size="16" fill="#475569">Broker</text>
  <text x="743" y="237" font-family="Inter, Arial" font-size="14" fill="#64748b">topics / QoS</text>
</g>
<g filter="url(#shadow)">
  <rect x="190" y="378" width="580" height="166" rx="28" fill="#ffffff" opacity=".96"/>
  <text x="231" y="425" font-family="Inter, Arial" font-size="28" font-weight="800" fill="#0f172a">Plataforma + Dashboard</text>
  <rect x="235" y="455" width="110" height="48" rx="12" fill="#e0f2fe"/>
  <rect x="374" y="455" width="110" height="48" rx="12" fill="#ede9fe"/>
  <rect x="513" y="455" width="110" height="48" rx="12" fill="#dcfce7"/>
  <text x="253" y="485" font-family="Inter, Arial" font-size="14" font-weight="700" fill="#0369a1">Histórico</text>
  <text x="398" y="485" font-family="Inter, Arial" font-size="14" font-weight="700" fill="#5b21b6">Alertas</text>
  <text x="540" y="485" font-family="Inter, Arial" font-size="14" font-weight="700" fill="#166534">Decisión</text>
</g>
<path d="M798 292 C785 355 710 373 630 392" fill="none" stroke="#38bdf8" stroke-width="6" stroke-linecap="round"/>
<path d="M466 301 C445 342 425 363 408 379" fill="none" stroke="#a78bfa" stroke-width="6" stroke-linecap="round"/>
</svg>